<?xml version="1.0" encoding="UTF-8"?>
<!-- Downloaded and modified Material Symbols by Google (https://github.com/google/material-design-icons) -->
<!-- Apache License 2.0 https://github.com/google/material-design-icons/blob/master/LICENSE -->

<svg xmlns="http://www.w3.org/2000/svg" version="1.1" xmlns:xlink="http://www.w3.org/1999/xlink" viewBox="0 0 128 128">
  <defs>
    <style>
      .st0 {
        fill: url(#_gradient);
      }

      .st1 {
        fill: #63635e;
      }
    </style>
    <linearGradient id="_gradient" x1="77.77" y1="64" x2="13.77" y2="64" gradientUnits="userSpaceOnUse">
      <stop offset=".13" stop-color="#fff" stop-opacity="0"/>
      <stop offset=".6" stop-color="#63635e"/>
    </linearGradient>
  </defs>
  <path class="st0" d="M45.77,96c-4.43,0-8.59-.84-12.48-2.52-3.89-1.68-7.28-3.96-10.16-6.84s-5.16-6.27-6.84-10.16-2.52-8.05-2.52-12.48.84-8.59,2.52-12.48,3.96-7.28,6.84-10.16,6.27-5.16,10.16-6.84,8.05-2.52,12.48-2.52,8.59.84,12.48,2.52c3.89,1.68,7.28,3.96,10.16,6.84,2.88,2.88,5.16,6.27,6.84,10.16s2.52,8.05,2.52,12.48-.84,8.59-2.52,12.48-3.96,7.28-6.84,10.16c-2.88,2.88-6.27,5.16-10.16,6.84s-8.05,2.52-12.48,2.52ZM45.77,89.6c7.15,0,13.2-2.48,18.16-7.44s7.44-11.01,7.44-18.16-2.48-13.2-7.44-18.16c-4.96-4.96-11.01-7.44-18.16-7.44s-13.2,2.48-18.16,7.44c-4.96,4.96-7.44,11.01-7.44,18.16s2.48,13.2,7.44,18.16,11.01,7.44,18.16,7.44Z"/>
  <path class="st1" d="M82.23,80c4.43,0,8.2-1.56,11.32-4.68,3.12-3.12,4.68-6.89,4.68-11.32s-1.56-8.2-4.68-11.32c-3.12-3.12-6.89-4.68-11.32-4.68s-8.2,1.56-11.32,4.68c-3.12,3.12-4.68,6.89-4.68,11.32s1.56,8.2,4.68,11.32,6.89,4.68,11.32,4.68ZM82.23,96c-4.43,0-8.59-.84-12.48-2.52-3.89-1.68-7.28-3.96-10.16-6.84-2.88-2.88-5.16-6.27-6.84-10.16s-2.52-8.05-2.52-12.48.84-8.59,2.52-12.48,3.96-7.28,6.84-10.16,6.27-5.16,10.16-6.84,8.05-2.52,12.48-2.52,8.59.84,12.48,2.52c3.89,1.68,7.28,3.96,10.16,6.84,2.88,2.88,5.16,6.27,6.84,10.16,1.68,3.89,2.52,8.05,2.52,12.48s-.84,8.59-2.52,12.48c-1.68,3.89-3.96,7.28-6.84,10.16-2.88,2.88-6.27,5.16-10.16,6.84-3.89,1.68-8.05,2.52-12.48,2.52ZM82.23,89.6c7.15,0,13.2-2.48,18.16-7.44,4.96-4.96,7.44-11.01,7.44-18.16s-2.48-13.2-7.44-18.16c-4.96-4.96-11.01-7.44-18.16-7.44s-13.2,2.48-18.16,7.44c-4.96,4.96-7.44,11.01-7.44,18.16s2.48,13.2,7.44,18.16c4.96,4.96,11.01,7.44,18.16,7.44Z"/>
</svg>
